HIERARCHY
ROOT Hips
{
  OFFSET 0 0 0
  CHANNELS 6 Xposition Yposition Zposition Zrotation Yrotation Xrotation
  JOINT LeftThigh
  {
    OFFSET 8.409438 0 -5.917753
    CHANNELS 3 Zrotation Yrotation Xrotation
    JOINT LeftLeg
    {
      OFFSET 0 0 -42.358652
      CHANNELS 3 Zrotation Yrotation Xrotation
      JOINT LeftFoot
      {
        OFFSET 0 0 -39.357303
        CHANNELS 3 Zrotation Yrotation Xrotation
      }
    }
  }
  JOINT RightThigh
  {
    OFFSET -8.409438 0 -5.917753
    CHANNELS 3 Zrotation Yrotation Xrotation
    JOINT RightLeg
    {
      OFFSET 0 0 -42.358652
      CHANNELS 3 Zrotation Yrotation Xrotation
      JOINT RightFoot
      {
        OFFSET 0 0 -39.357303
        CHANNELS 3 Zrotation Yrotation Xrotation
      }
    }
  }
  JOINT SpineLow
  {
    OFFSET 0 0 4.719101
    CHANNELS 3 Zrotation Yrotation Xrotation
    JOINT SpineMid
    {
      OFFSET 0 0 12.899191
      CHANNELS 3 Zrotation Yrotation Xrotation
      JOINT Chest
      {
        OFFSET 0 0 12.899191
        CHANNELS 3 Zrotation Yrotation Xrotation
        JOINT LeftShoulder
        {
          OFFSET 7.550562 1.41573 9.438202
          CHANNELS 3 Zrotation Yrotation Xrotation
          JOINT LeftArm
          {
            OFFSET 9.155056 0 4.247191
            CHANNELS 3 Zrotation Yrotation Xrotation
            JOINT LeftForearm
            {
              OFFSET 0 0 25.771955
              CHANNELS 3 Zrotation Yrotation Xrotation
              JOINT LeftHand
              {
                OFFSET 0 0 25.197169
                CHANNELS 3 Zrotation Yrotation Xrotation
              }
            }
          }
        }
        JOINT RightShoulder
        {
          OFFSET -7.550562 1.41573 9.438202
          CHANNELS 3 Zrotation Yrotation Xrotation
          JOINT RightArm
          {
            OFFSET -9.155056 0 4.247191
            CHANNELS 3 Zrotation Yrotation Xrotation
            JOINT RightForearm
            {
              OFFSET 0 0 -25.771955
              CHANNELS 3 Zrotation Yrotation Xrotation
              JOINT RightHand
              {
                OFFSET 0 0 -25.197169
                CHANNELS 3 Zrotation Yrotation Xrotation
              }
            }
          }
        }
        JOINT Neck
        {
          OFFSET 0 0 15.101124
          CHANNELS 3 Zrotation Yrotation Xrotation
          JOINT Head
          {
            OFFSET 0 0 11.325843
            CHANNELS 3 Zrotation Yrotation Xrotation
            End Site
            {
              OFFSET 0 0 14.157303
            }
          }
        }
      }
    }
  }
}
MOTION
Frames: 8
Frame Time: 0.0
0.0  101.685394  0.0  -3.71335  -4.624932  -127.184028  15.034704  -21.767031  1.935964  -7.539264  14.099419  47.303859  -4.41216  4.914174  -1.096847  27.946257  -6.985258  -57.573513  -7.718536  14.772199  -15.17151  -34.208198  -15.467223  15.784651  -3.202671  0.210999  4.713153  -8.675799  1.194826  12.830247  -8.675798  1.194826  12.830248  7.715115  32.549493  22.943546  129.193979  44.195811  -177.769936  -16.156844  0.870327  112.98642  96.394555  1.60749  -25.787244  7.32992  -4.361933  24.984333  22.195747  66.914028  -31.101651  12.828522  -21.980871  -103.389126  58.197954  5.492908  18.852071  -0.019892  3.375349  10.076524  -0.070655  2.531999  7.555314  
0.0  101.685394  0.0  -3.450599  -5.380074  -127.369413  17.979999  -23.767437  2.148598  -8.319788  14.809684  46.814097  -5.922739  5.196306  -1.694719  29.949723  -2.725582  -61.263757  -16.08331  13.700822  -14.362854  -31.955347  -13.619886  18.803881  -2.83823  0.173105  4.601125  -7.693434  1.008555  12.537335  -7.693434  1.008555  12.537336  6.604314  31.702983  23.605855  128.939657  43.509578  -177.735192  -16.490296  1.136193  113.34404  95.959719  1.250159  -25.453074  5.407628  -4.278428  24.785858  24.891731  64.270034  -27.761771  14.417301  -22.004695  -103.803957  57.956999  5.915253  19.00073  -1.232086  3.541192  10.64181  -0.985867  2.635405  7.985996  
0.0  101.685394  0.0  -3.092828  -5.775572  -127.592746  19.721587  -25.676926  2.177052  -8.504993  16.160113  46.842095  -7.113397  5.398018  -2.124894  32.689116  1.070395  -66.557548  -24.767931  16.440145  -9.926935  -26.430156  -12.638528  21.421351  -2.52041  0.17304  4.588441  -6.828468  0.947074  12.509096  -6.828468  0.947074  12.509096  5.3786  30.6227  23.418266  129.038694  42.783582  -177.862404  -16.441461  1.000928  114.303333  95.486055  1.307943  -24.878195  3.720038  -4.205374  23.821757  27.121093  61.604602  -24.616488  15.573997  -21.633407  -104.241374  57.637768  6.21892  18.869273  -2.388549  3.640589  10.700921  -1.855313  2.689657  8.037369  
0.0  101.685394  0.0  -2.550935  -5.688064  -128.900315  19.875065  -26.994124  3.34625  -8.751435  17.929112  47.00684  -7.047085  5.352695  -2.072526  32.299648  -0.068994  -70.175906  -24.989155  20.060928  -2.22053  -22.286801  -13.224901  22.574222  -2.413672  0.232171  4.799593  -6.522279  1.1084  13.082092  -6.522279  1.1084  13.082091  4.858472  29.8567  22.550404  128.704865  42.003281  -177.941709  -16.780156  0.012072  115.039624  94.995391  1.770956  -24.40364  3.076531  -3.910676  22.805364  28.334049  59.389595  -22.390891  16.499675  -21.060593  -104.754329  57.318963  6.601856  18.636071  -3.000255  3.937555  10.275665  -2.316386  2.903794  7.723281  
0.0  101.685394  0.0  -2.451168  -5.696782  -129.481229  19.50319  -27.265676  3.556501  -9.260824  19.815793  47.242006  -5.078825  5.009273  -1.543492  29.180337  -4.950793  -73.328615  -19.022462  22.882997  7.362441  -19.183233  -15.100343  22.52193  -2.469881  0.191788  4.938737  -6.680261  1.023648  13.464705  -6.680262  1.023648  13.464706  4.998388  29.523673  21.41251  128.721705  41.281222  -177.874008  -17.060217  -1.34388  115.834235  94.553041  2.515619  -24.099689  3.285104  -3.510866  22.145918  28.698814  57.76074  -21.2239  17.28148  -20.605583  -105.152986  57.179468  7.087125  18.435616  -3.099231  4.367382  9.446942  -2.391605  3.228666  7.104163  
0.0  101.685394  0.0  -2.290386  -5.634714  -129.12663  18.685547  -26.273755  2.697351  -8.996188  21.064673  48.108092  -2.530482  4.626027  -1.080039  25.519199  -11.501498  -75.395622  -7.849582  23.058409  17.272953  -19.158704  -15.952836  22.179081  -2.678171  0.133727  5.008339  -7.257255  0.915701  13.656434  -7.257255  0.915701  13.656433  5.371312  29.786299  19.552705  129.279686  40.784355  -177.743564  -17.19919  -2.531586  116.611861  94.195149  3.3259  -23.815021  4.157797  -2.99804  21.475817  28.672549  56.862952  -20.982402  17.97641  -20.512167  -105.418996  57.172321  7.652591  18.353616  -2.733048  4.87818  8.127423  -2.114005  3.62316  6.113878  
0.0  101.685394  0.0  -1.941492  -5.786117  -129.525934  17.957876  -25.055728  2.348716  -8.463383  21.080195  49.52478  -0.331226  4.509539  -0.975608  21.204725  -19.18891  -75.342524  4.330166  20.643604  25.366441  -20.318276  -15.743529  22.370508  -2.944287  0.144153  5.264258  -7.973416  1.029326  14.348247  -7.973416  1.029326  14.348246  5.877596  30.407636  17.19822  130.164799  40.804097  -177.687904  -17.23996  -3.202152  117.273736  94.009958  3.969691  -23.426792  5.52792  -2.519626  20.609363  28.649699  56.478791  -21.199693  18.530926  -20.689096  -105.636028  57.07282  8.236833  18.430456  -2.078756  5.314268  6.599332  -1.615704  3.963876  4.96413  
0.0  101.685394  0.0  -1.739328  -6.293212  -129.759749  18.630438  -24.249158  1.804407  -8.699602  20.167693  50.513631  1.145662  4.603865  -0.901597  18.32234  -25.981475  -73.780706  12.826418  19.19799  30.210635  -20.19101  -14.774882  23.023266  -3.21641  0.174373  5.425278  -8.702772  1.191046  14.777485  -8.702771  1.191046  14.777485  6.956589  31.124899  15.755917  131.340325  41.469158  -177.619814  -17.100585  -3.066767  117.867166  94.234595  4.344522  -22.972035  7.133673  -2.275278  20.233215  29.194422  56.422895  -21.043476  18.936775  -20.987231  -105.863288  56.827984  8.723842  18.595955  -1.152998  5.63125  5.608868  -0.915974  4.213304  4.213928  
